<svg width="45" height="45" viewBox="0 0 45 45" fill="none" xmlns="http://www.w3.org/2000/svg">
<path fill-rule="evenodd" clip-rule="evenodd" d="M22.12 0C34.3365 0 44.24 9.90346 44.24 22.12C44.24 34.3365 34.3365 44.24 22.12 44.24C9.90346 44.24 0 34.3365 0 22.12C0 9.90346 9.90346 0 22.12 0ZM26.4037 11C29.1927 11.1468 31.8349 12.0275 34.0367 13.789C36.5321 18.4863 37.8532 23.7707 38 29.2018C35.7982 31.5505 32.7156 33.0184 29.4862 33.0184C29.4862 33.0184 28.4587 31.8441 27.7248 30.8165C29.633 30.3762 31.3945 29.3486 32.5688 27.734L32.5668 27.7351C31.54 28.3219 30.5131 28.9086 29.4862 29.3486C28.1651 29.9358 26.844 30.2294 25.5229 30.523L25.5205 30.5233C24.347 30.6699 23.1735 30.8165 22 30.8165C20.8265 30.8165 19.653 30.6699 18.4795 30.5233L18.4771 30.523C17.156 30.2294 15.8349 29.9358 14.5138 29.3486C13.4869 28.9086 12.46 28.3219 11.4332 27.7352L11.4312 27.734C12.6055 29.3486 14.367 30.3762 16.2752 30.8165C15.5413 31.8441 14.5138 33.0184 14.5138 33.0184C11.2844 33.0184 8.2018 31.5505 6 29.2018C6.14679 23.7707 7.46789 18.4863 9.9633 13.789C12.1651 12.0275 14.8073 11.1468 17.5963 11L18.0367 11.4404C15.5413 12.0275 13.3394 13.2018 11.2844 14.8165C13.7798 13.4954 16.5688 12.6147 19.5046 12.3211C20.3853 12.1743 21.1193 12.1743 22 12.1743C22.8807 12.1743 23.6147 12.1743 24.4954 12.3211C27.4312 12.6147 30.2202 13.4954 32.7156 14.8165C30.6606 13.2018 28.4587 12.0275 25.9633 11.4404L26.4037 11ZM14.367 23.6239C14.367 25.2385 15.6881 26.5596 17.156 26.5596C18.6239 26.5596 19.945 25.2385 19.945 23.6239C19.945 22.0092 18.6239 20.6881 17.156 20.6881C15.6881 20.6881 14.367 22.0092 14.367 23.6239ZM24.055 23.6239C24.055 25.2385 25.3761 26.5596 26.844 26.5596C28.3119 26.5596 29.633 25.2385 29.633 23.6239C29.633 22.0092 28.3119 20.6881 26.844 20.6881C25.3761 20.6881 24.055 22.0092 24.055 23.6239Z" fill="white"/>
</svg>
