<svg width="45" height="45" viewBox="0 0 45 45" fill="none" xmlns="http://www.w3.org/2000/svg">
<path fill-rule="evenodd" clip-rule="evenodd" d="M44.318 22.4238C44.318 10.1348 34.4135 0.17041 22.1982 0.17041C9.98291 0.17041 0.0783691 10.1348 0.0783691 22.4238C0.0783691 33.5307 8.16593 42.7371 18.742 44.4081V28.8585L13.1241 28.8585L13.1241 22.4238L18.742 22.4238V17.5211C18.742 11.9449 22.0451 8.86217 27.0971 8.86217C29.5175 8.86217 32.0494 9.2973 32.0494 9.2973V14.7742H29.2588C26.5125 14.7742 25.6534 16.4889 25.6534 18.2513V22.4238H31.7877L30.8081 28.8585H25.6544V44.41C36.2304 42.74 44.318 33.5337 44.318 22.4238Z" fill="white"/>
</svg>
