<svg width="45" height="45" viewBox="0 0 45 45" fill="none" xmlns="http://www.w3.org/2000/svg">
<path d="M22.1982 0.511719C9.98291 0.511719 0.0783691 10.673 0.0783691 23.1944C0.0783691 33.2174 6.41807 41.7099 15.2067 44.7118C15.33 44.7386 15.4558 44.7519 15.582 44.7513C16.4016 44.7513 16.7176 44.149 16.7176 43.6256C16.7176 43.0825 16.6979 41.6605 16.688 39.7645C15.9563 39.936 15.2078 40.0255 14.4562 40.0311C10.2002 40.0311 9.23242 36.723 9.23242 36.723C8.22518 34.1062 6.77356 33.4051 6.77356 33.4051C4.84795 32.0522 6.76369 32.0127 6.91181 32.0127H6.92169C9.14354 32.2102 10.3088 34.3629 10.3088 34.3629C11.4148 36.2984 12.896 36.8415 14.2193 36.8415C15.0942 36.824 15.9556 36.6221 16.7472 36.249C16.9447 34.7875 17.5175 33.7902 18.1495 33.2174C13.2416 32.6447 8.07705 30.6993 8.07705 22.0094C8.07705 19.5308 8.93617 17.5064 10.3483 15.9265C10.1212 15.3537 9.36079 13.043 10.5655 9.92251C10.7271 9.88384 10.8932 9.86723 11.0593 9.87314C11.8591 9.87314 13.6663 10.1793 16.6485 12.253C20.2721 11.2391 24.1045 11.2391 27.7281 12.253C30.7104 10.1793 32.5175 9.87314 33.3173 9.87314C33.4834 9.86723 33.6495 9.88384 33.8111 9.92251C35.0158 13.043 34.2555 15.3537 34.0283 15.9265C35.4404 17.5163 36.2996 19.5407 36.2996 22.0094C36.2996 30.7191 31.1251 32.6348 26.1975 33.1977C26.9875 33.8988 27.6985 35.2813 27.6985 37.3945C27.6985 40.4261 27.6689 42.8751 27.6689 43.6157C27.6689 44.149 27.975 44.7513 28.7946 44.7513C28.9273 44.7519 29.0597 44.7387 29.1896 44.7118C37.9882 41.7099 44.318 33.2076 44.318 23.1944C44.318 10.673 34.4135 0.511719 22.1982 0.511719Z" fill="white"/>
</svg>
