<svg width="45" height="45" viewBox="0 0 45 45" fill="none" xmlns="http://www.w3.org/2000/svg">
<path d="M31.4144 3.68631C33.8568 3.6936 36.197 4.66704 37.924 6.39403C39.651 8.12102 40.6244 10.4612 40.6317 12.9036V31.3361C40.6244 33.7784 39.651 36.1186 37.924 37.8456C36.197 39.5726 33.8568 40.546 31.4144 40.5533H12.9819C10.5396 40.546 8.19939 39.5726 6.4724 37.8456C4.74541 36.1186 3.77197 33.7784 3.76468 31.3361L3.76468 12.9036C3.77197 10.4612 4.74541 8.12102 6.4724 6.39403C8.19939 4.66704 10.5396 3.6936 12.9819 3.68631L31.4144 3.68631ZM31.4144 0L12.9819 0C5.88482 0 0.0783691 5.80645 0.0783691 12.9036L0.0783691 31.3361C0.0783691 38.4332 5.88482 44.2396 12.9819 44.2396H31.4144C38.5115 44.2396 44.318 38.4332 44.318 31.3361V12.9036C44.318 5.80645 38.5115 0 31.4144 0Z" fill="white"/>
<path d="M34.1793 12.9035C33.6325 12.9035 33.0979 12.7413 32.6432 12.4375C32.1885 12.1337 31.8341 11.7019 31.6248 11.1966C31.4156 10.6914 31.3608 10.1354 31.4675 9.59909C31.5742 9.06274 31.8375 8.57007 32.2242 8.18338C32.6109 7.79669 33.1036 7.53335 33.6399 7.42666C34.1763 7.31998 34.7322 7.37473 35.2374 7.58401C35.7427 7.79328 36.1745 8.14768 36.4783 8.60237C36.7821 9.05707 36.9443 9.59165 36.9443 10.1385C36.9451 10.5018 36.8741 10.8617 36.7354 11.1975C36.5967 11.5334 36.3931 11.8385 36.1362 12.0954C35.8793 12.3523 35.5742 12.5559 35.2384 12.6946C34.9025 12.8333 34.5427 12.9043 34.1793 12.9035ZM22.1981 14.7461C23.6565 14.7461 25.0821 15.1786 26.2946 15.9888C27.5072 16.799 28.4523 17.9506 29.0104 19.298C29.5685 20.6453 29.7145 22.1279 29.43 23.5583C29.1455 24.9886 28.4432 26.3025 27.412 27.3337C26.3808 28.3649 25.067 29.0672 23.6366 29.3517C22.2063 29.6362 20.7237 29.4902 19.3763 28.9321C18.029 28.374 16.8774 27.4289 16.0672 26.2163C15.2569 25.0037 14.8245 23.5781 14.8245 22.1197C14.8266 20.1648 15.6041 18.2905 16.9865 16.9081C18.3688 15.5258 20.2431 14.7482 22.1981 14.7461ZM22.1981 11.0598C20.0107 11.0598 17.8723 11.7085 16.0535 12.9238C14.2347 14.1391 12.8172 15.8664 11.9801 17.8873C11.143 19.9082 10.924 22.132 11.3507 24.2774C11.7775 26.4228 12.8308 28.3935 14.3776 29.9403C15.9243 31.487 17.895 32.5404 20.0404 32.9671C22.1858 33.3939 24.4096 33.1749 26.4305 32.3378C28.4515 31.5007 30.1788 30.0831 31.3941 28.2643C32.6094 26.4455 33.258 24.3072 33.258 22.1197C33.258 19.1865 32.0928 16.3734 30.0186 14.2992C27.9445 12.2251 25.1314 11.0598 22.1981 11.0598Z" fill="white"/>
</svg>
