<svg width="45" height="45" viewBox="0 0 45 45" fill="none" xmlns="http://www.w3.org/2000/svg">
<path fill-rule="evenodd" clip-rule="evenodd" d="M37.8726 6.76997C35.8275 4.72395 33.398 3.10264 30.7239 1.99936C28.0497 0.896074 25.1838 0.332612 22.291 0.34141C10.1508 0.34141 0.267967 10.1748 0.26303 22.2637C0.257659 26.113 1.27234 29.8951 3.20378 33.2248L0.0783691 44.5809L11.7554 41.5326C14.9877 43.2836 18.606 44.2 22.2821 44.1988H22.291C34.4302 44.1988 44.312 34.3644 44.3179 22.2765C44.3253 19.3936 43.7592 16.538 42.6527 13.8759C41.5462 11.2138 39.9213 8.79827 37.8726 6.76997ZM22.291 40.4987H22.2831C19.006 40.4996 15.7885 39.6226 12.9651 37.9588L12.2966 37.5638L5.36737 39.3729L7.21693 32.6491L6.78145 31.9579C4.94905 29.0568 3.97821 25.695 3.98192 22.2637C3.98192 12.2179 12.1988 4.0445 22.2979 4.0445C27.1425 4.03584 31.7922 5.95186 35.2242 9.37113C38.6563 12.7904 40.5896 17.4329 40.599 22.2775C40.5951 32.3242 32.3821 40.4987 22.291 40.4987ZM32.3328 26.8525C31.7827 26.578 29.074 25.2528 28.5724 25.0701C28.0707 24.8874 27.7004 24.7956 27.3341 25.3446C26.9677 25.8937 25.9121 27.1221 25.5912 27.4924C25.2702 27.8627 24.9493 27.9032 24.3993 27.6287C23.8492 27.3542 22.0747 26.7765 19.9723 24.9101C18.3361 23.4575 17.2321 21.6643 16.9111 21.1162C16.5902 20.5682 16.8766 20.2709 17.1521 19.9984C17.3999 19.7525 17.7021 19.3585 17.9776 19.0385C18.2531 18.7186 18.345 18.4895 18.5276 18.1241C18.7103 17.7587 18.6195 17.4388 18.4822 17.1653C18.345 16.8917 17.2439 14.1949 16.7857 13.0978C16.3384 12.0293 15.8851 12.1745 15.5474 12.1577C15.2265 12.1419 14.8562 12.138 14.4918 12.138C14.2132 12.1452 13.9391 12.2098 13.6867 12.3277C13.4342 12.4456 13.2087 12.6143 13.0244 12.8233C12.5198 13.3723 11.0978 14.6995 11.0978 17.3934C11.0978 20.0872 13.0728 22.6942 13.3453 23.0596C13.6178 23.425 17.2261 28.9579 22.7472 31.3308C23.7724 31.7698 24.8199 32.1548 25.8854 32.4842C27.2037 32.9009 28.4035 32.8426 29.3515 32.7014C30.4091 32.5444 32.6102 31.3762 33.0675 30.0964C33.5247 28.8167 33.5256 27.7205 33.3884 27.4924C33.2511 27.2643 32.8838 27.1261 32.3328 26.8525Z" fill="#FFFBFB"/>
</svg>
